<svg width="350" height="350" viewBox="0 0 500 500" fill="none" xmlns="http://www.w3.org/2000/svg">
<g clip-path="url(#clip0_25_4)">
<path d="M377.739 129.588C391.254 140.856 395.475 162.238 380.752 177.208C363.015 195.241 345.398 213.393 327.785 231.548C306.15 253.848 284.586 276.216 262.931 298.496C261.992 299.463 260.493 300.258 259.184 300.383C258.009 300.494 256.302 299.899 255.629 299.01C254.964 298.131 254.855 296.309 255.303 295.235C255.933 293.725 257.195 292.419 258.373 291.207C271.629 277.567 284.938 263.977 298.201 250.343C316.403 231.631 334.592 212.907 352.76 194.161C360.91 185.752 369.087 177.364 377.071 168.798C381.103 164.471 382.436 159.082 381.832 153.095C356.182 179.229 330.621 205.272 305.059 231.315C304.854 231.165 304.648 231.016 304.443 230.867C304.659 231.443 304.97 232.003 305.074 232.599C305.406 234.5 305.519 236.465 303.626 237.638C301.833 238.749 300.015 238.294 298.412 237.042C295.978 235.141 293.762 232.869 291.109 231.358C286.966 228.998 282.587 227.023 278.209 225.113C274.713 223.588 273.287 221.915 274.099 219.545C274.913 217.171 277.704 216.036 280.893 217.121C284.49 218.345 287.988 219.861 291.813 221.361C292.976 217.459 293.522 213.339 292.729 209.449C291.555 203.69 294.034 200.026 297.834 196.231C316.419 177.673 334.798 158.91 353.311 140.28C356.373 137.198 359.739 134.418 363.006 131.462C360.722 130.332 357.86 130.502 355.026 130.942C349.619 131.78 345.092 134.324 341.261 138.224C334.823 144.777 328.364 151.311 321.845 157.784C314.521 165.055 307.124 172.254 299.746 179.471C299.169 180.036 298.563 180.788 297.854 180.953C296.754 181.208 295.268 181.46 294.473 180.928C293.58 180.329 292.848 178.869 292.815 177.762C292.774 176.374 293.551 174.972 293.914 173.561C295.793 166.251 297.705 158.949 299.477 151.613C299.849 150.074 299.68 148.404 299.789 146.21C297.85 146.919 296.245 147.351 294.778 148.067C287.075 151.827 281.162 157.692 275.908 164.314C274.948 165.523 274.024 166.773 272.959 167.884C271.476 169.431 269.727 170.127 267.733 168.771C265.881 167.511 265.205 165.191 266.439 163.175C267.789 160.971 269.449 158.942 271.092 156.934C278.285 148.145 286.84 141.265 297.953 138.039C298.652 137.837 299.37 137.681 300.089 137.572C304.268 136.937 306.791 138.5 306.941 142.706C307.137 148.197 306.637 153.714 306.405 159.218C306.372 160.007 306.163 160.788 306.533 161.954C308.691 159.682 310.812 157.373 313.014 155.144C320.617 147.451 328.197 139.735 335.883 132.126C343.875 124.215 353.415 120.754 364.596 123.072C369.407 124.07 373.77 126.323 377.739 129.588Z" fill="#FBFBFB"/>
<path d="M194.019 301.929C186.444 308.451 178.976 314.836 171.552 321.272C167.561 324.733 163.594 328.227 159.737 331.835C158.956 332.566 158.426 333.84 158.288 334.928C157.871 338.204 157.703 341.512 157.386 345.46C158.98 344.04 160.156 343.006 161.318 341.956C176.937 327.842 192.554 313.728 208.169 299.609C209.8 298.134 211.748 297.602 213.815 298.117C219.479 299.529 224.063 302.56 227.196 307.585C228.717 310.026 229.027 312.596 227.815 315.25C222.588 326.704 216.709 337.91 212.289 349.666C208.064 360.906 199.62 367.361 190.091 373.178C189.902 373.294 189.781 373.522 189.207 374.18C190.952 373.846 192.195 373.692 193.391 373.363C198.636 371.919 203.829 370.269 209.117 369.013C211.747 368.388 213.14 366.819 214.15 364.596C217.346 357.567 220.529 350.533 223.726 343.505C227.461 335.296 231.198 327.088 234.955 318.889C235.291 318.156 235.72 317.447 236.211 316.808C237.689 314.887 239.639 314.391 241.564 315.377C243.525 316.382 244.209 318.152 243.201 320.581C241.519 324.632 239.669 328.613 237.846 332.603C232.138 345.091 226.37 357.551 220.721 370.066C219.459 372.862 217.575 374.695 214.657 375.584C204.64 378.637 194.663 381.823 184.618 384.783C167.676 389.775 151.575 396.565 136.932 406.564C135.86 407.296 134.884 408.17 133.804 408.89C131.584 410.371 128.682 409.848 127.323 407.78C126.031 405.816 126.842 403.394 129.156 401.796C129.98 401.227 130.755 400.415 131.233 399.54C142.59 378.736 149.07 356.517 150.29 332.827C150.442 329.884 151.555 327.648 153.665 325.835C167.477 313.965 181.315 302.126 195.15 290.283C195.642 289.862 196.173 289.479 196.713 289.12C198.943 287.636 200.769 287.701 202.162 289.291C203.626 290.963 203.493 293.39 201.61 295.175C199.196 297.466 196.64 299.607 194.019 301.929ZM183.6 345.396C185.302 348.992 187.8 350.38 190.615 349.293C193.338 348.243 194.987 345.227 194.248 342.649C193.405 339.706 190.513 337.838 187.73 338.439C184.703 339.093 183.086 341.614 183.6 345.396Z" fill="#FBFCFC"/>
<path d="M272.985 366.254C270.504 374.368 266.767 381.497 260.088 386.691C255.501 390.258 250.266 392.398 244.445 392.96C243.482 393.053 242.285 393.311 241.574 392.876C240.222 392.048 238.646 390.982 238.082 389.632C237.422 388.051 238.559 386.512 240.234 385.755C241.109 385.36 242.011 384.907 242.942 384.774C254.402 383.132 261.448 376.285 264.511 365.539C268.595 351.21 265.482 337.85 257.688 325.432C247.957 309.928 234.029 298.98 218.49 289.922C210.488 285.257 202.078 281.295 194.041 276.686C184.134 271.005 177.068 262.66 172.493 252.203C172.299 251.761 172.071 251.334 171.606 250.384C166.818 254.554 162.199 258.587 157.566 262.602C156.775 263.287 155.99 264.032 155.079 264.516C153.051 265.595 150.907 265.2 149.846 263.562C148.646 261.71 148.753 259.982 150.378 258.277C155.67 252.725 161.269 247.543 167.879 243.587C169.298 242.738 169.686 241.841 169.443 240.246C166.858 223.287 169.349 207.054 176.399 191.443C176.798 190.559 176.351 188.936 175.75 188.013C167.932 175.996 163.703 162.855 163.179 148.539C163.105 146.521 163.288 144.469 163.582 142.466C164.159 138.537 166.182 137.03 170.225 137.54C175.837 138.248 180.807 140.725 185.507 143.669C193.069 148.406 198.972 154.887 204.017 162.166C205.821 164.769 205.505 167.232 203.439 168.608C201.597 169.834 199.21 169.127 197.405 166.69C191.87 159.219 185.52 152.665 177.037 148.516C175.165 147.6 173.196 146.881 170.96 145.939C171.249 153.714 172.491 160.875 174.817 167.836C176.943 174.201 179.895 180.173 183.979 185.516C185.856 187.972 186.1 190.129 184.667 193.059C177.784 207.137 175.449 222.066 177.046 237.874C177.598 237.686 178.083 237.529 178.562 237.357C183.823 235.462 189.035 233.409 194.366 231.734C197.036 230.895 199.266 232.298 199.836 234.482C200.427 236.749 199.035 238.8 196.26 239.728C195.568 239.96 194.846 240.107 194.165 240.366C189.613 242.093 185.065 243.832 180.526 245.592C180.019 245.788 179.573 246.144 178.943 246.518C183.088 256.8 189.486 264.971 199.24 270.359C210.191 276.407 221.344 282.137 231.965 288.723C246.176 297.535 257.805 309.15 266.133 323.8C273.643 337.01 276.599 351.016 272.985 366.254Z" fill="#F7F8F8"/>
<path d="M233.104 264.752C230.636 267.439 228.145 270.106 225.707 272.82C223.739 275.01 222.001 275.366 220.018 273.876C217.96 272.329 217.317 269.967 219.151 267.917C222.864 263.766 226.953 259.95 230.911 256.021C231.284 255.651 231.83 255.455 232.75 254.91C230.156 254.502 228.019 254.453 226.083 253.804C221.487 252.265 216.908 250.617 212.483 248.652C210.58 247.807 209.822 245.832 210.897 243.662C211.871 241.698 213.831 240.844 216.006 241.478C216.859 241.727 217.693 242.072 218.499 242.45C224.658 245.344 231.172 246.427 237.925 246.293C244.85 246.155 250.943 243.818 256.252 239.37C260.089 236.155 264.139 233.317 269.312 232.717C278.154 231.692 285.413 234.853 291.363 241.241C293.238 243.253 292.921 245.083 290.629 247.407C283.839 254.296 277.033 261.167 270.245 268.058C264.768 273.618 259.373 279.26 253.821 284.744C249.148 289.36 245.573 289.703 240.161 285.971C233.776 281.568 229.607 274.845 233.734 265.41C233.896 264.829 233.911 264.546 233.926 264.264C233.652 264.426 233.378 264.589 233.104 264.752Z" fill="#FBFCFC"/>
<path d="M257.454 144.981C259.177 145.561 260.788 145.939 262.211 146.678C263.157 147.171 264.365 148.093 264.511 148.979C264.75 150.426 264.62 152.258 263.869 153.429C263.38 154.191 261.436 154.489 260.277 154.275C253.898 153.101 247.612 151.308 241.197 150.476C231.356 149.202 221.797 151.22 212.413 154.169C211.228 154.541 209.619 154.968 208.711 154.463C207.547 153.814 206.413 152.351 206.133 151.053C205.708 149.071 207.217 147.599 208.99 147.028C213.537 145.563 218.093 143.984 222.768 143.09C234.376 140.871 245.902 141.715 257.454 144.981Z" fill="#F6F6F6"/>
<path d="M281.305 294.058C281.345 290.913 282.381 289.688 285.207 289.429C286.576 289.303 287.974 289.475 289.34 289.336C298.833 288.368 304.811 282.763 308.478 274.403C310.469 269.864 311.096 265.039 310.194 260.085C310.035 259.211 309.689 258.123 310.04 257.455C310.775 256.055 311.666 254.387 312.955 253.716C314.593 252.862 316.314 253.912 317.246 255.537C317.795 256.493 318.179 257.643 318.286 258.74C319.513 271.298 316.272 282.249 306.51 290.771C300.774 295.779 293.993 297.822 286.479 297.57C284.176 297.492 282.148 296.734 281.305 294.058Z" fill="#F8F8F8"/>
<path d="M240.558 213.117C244.092 213.185 245.84 214.571 245.777 217.08C245.706 219.91 243.779 221.316 239.901 221.366C239.339 225.316 241.446 228.475 245.291 229.447C247.736 230.066 248.874 231.5 248.71 233.758C248.55 235.955 246.899 237.611 244.591 237.841C241.924 238.107 239.607 237.33 237.749 235.371C236.936 234.515 236.204 233.582 235.347 232.58C233.294 235.377 231.036 237.741 227.317 237.894C224.407 238.013 222.024 236.394 221.698 233.965C221.404 231.769 223.05 230.004 226.005 229.348C228.772 228.734 230.806 225.537 230.985 221.38C230.138 221.3 229.272 221.278 228.428 221.128C226.166 220.726 224.563 218.976 224.612 217.038C224.665 214.969 226.44 213.258 228.884 213.191C232.699 213.087 236.518 213.134 240.558 213.117Z" fill="#F7F8F8"/>
<path d="M204.567 206.032C199.433 204.704 196.511 201.048 194.003 196.983C193.713 196.513 193.896 195.283 194.311 194.92C198.644 191.127 203.594 189.398 209.386 190.759C215.152 192.114 218.714 195.782 220.394 201.333C220.759 202.541 220.977 203.979 220.665 205.152C220.369 206.267 219.47 207.689 218.505 208.024C217.572 208.349 216.002 207.737 215.101 207.036C213.929 206.123 213.142 204.716 212.013 203.3C210.172 205.789 207.701 206.633 204.567 206.032Z" fill="#F8F9F9"/>
<path d="M273.759 193.522C276.834 195.912 276.825 195.906 274.719 198.937C272.654 201.908 270.431 204.864 266.718 205.648C264.703 206.073 262.438 205.736 260.378 205.306C259.578 205.139 259.031 203.765 258.375 202.948C257.833 203.857 257.21 205.08 256.42 206.184C255.241 207.835 253.656 208.775 251.59 207.986C249.562 207.212 249.287 205.448 249.428 203.551C250.046 195.224 259.448 188.579 267.614 190.835C269.693 191.409 271.616 192.546 273.759 193.522Z" fill="#F8F8F9"/>
</g>
<defs>
<clipPath id="clip0_25_4">
<rect width="500" height="500" fill="white"/>
</clipPath>
</defs>
</svg>
